# Blender 4.3.2
# www.blender.org
mtllib SPIKE_HELIX.mtl
o SPIKE-HELIX
v 0.001105 0.345058 -0.084150
v -0.088757 0.122159 -0.268216
v 0.000000 0.000000 -0.772223
v 0.088756 0.122154 -0.268216
v -0.318816 0.104571 -0.089517
v -0.143614 -0.046662 -0.268216
v -0.203624 -0.278585 -0.084150
v -0.000007 -0.151004 -0.268216
v 0.201977 -0.279809 -0.084111
v 0.143606 -0.046672 -0.268216
v 0.328518 0.105627 -0.084111
v -0.244063 0.298760 -0.155540
v -0.359567 -0.139808 -0.155540
v 0.021839 -0.385173 -0.155540
v 0.373054 -0.098262 -0.155540
v 0.208718 0.324424 -0.155540
v -0.381967 0.324913 -0.100422
v -0.500005 0.162456 -0.000000
v -0.180386 0.385831 -0.139986
v -0.381976 0.525724 -0.000000
v -0.000009 0.525724 -0.000000
v 0.190968 0.463654 -0.100422
v 0.311205 0.290769 -0.139986
v 0.381946 0.525724 -0.000000
v 0.499993 0.162456 -0.000000
v 0.499984 -0.038355 -0.100422
v 0.372718 -0.206130 -0.139986
v 0.618038 -0.200800 0.000000
v 0.309022 -0.425327 0.000000
v 0.118038 -0.487379 -0.100422
v -0.080851 -0.418185 -0.139986
v 0.000030 -0.649857 0.000000
v -0.309001 -0.425342 0.000000
v -0.427039 -0.262885 -0.100422
v -0.422700 -0.052348 -0.139986
v -0.618034 -0.200868 0.000000
v -0.500017 0.162421 -0.000000
v -0.368065 0.353524 -0.412163
v -0.545093 0.371981 -0.365555
v -0.366666 0.431346 -0.368539
v -0.604234 0.513653 -0.288304
v 0.222482 0.459276 -0.412163
v 0.185326 0.633339 -0.365555
v 0.296926 0.481996 -0.368539
v 0.301784 0.733368 -0.288304
v 0.505567 -0.069678 -0.412163
v 0.659627 0.019450 -0.365555
v 0.550182 -0.133456 -0.368539
v 0.790751 -0.060393 -0.288304
v 0.089976 -0.502368 -0.412163
v 0.222352 -0.621345 -0.365555
v 0.043108 -0.564511 -0.368539
v 0.186942 -0.770726 -0.288304
v -0.449968 -0.240826 -0.412163
v -0.522212 -0.403491 -0.365555
v -0.523553 -0.215457 -0.368539
v -0.675224 -0.415981 -0.288304
v -0.347830 0.295689 -0.557466
v -0.321840 0.219627 -0.669508
v -0.356502 0.303451 -0.569574
v -0.356759 0.303276 -0.592257
v 0.173736 0.422163 -0.557466
v 0.109432 0.373944 -0.669508
v 0.178439 0.432811 -0.569574
v 0.178195 0.433006 -0.592257
v 0.455211 -0.034783 -0.557466
v 0.389481 0.011477 -0.669508
v 0.466791 -0.035963 -0.569574
v 0.466902 -0.035666 -0.592257
v 0.107607 -0.443690 -0.557466
v 0.131294 -0.366877 -0.669508
v 0.110065 -0.455067 -0.569574
v 0.110386 -0.455078 -0.592257
v -0.388708 -0.239459 -0.557466
v -0.308329 -0.238246 -0.669508
v -0.398768 -0.245312 -0.569574
v -0.398674 -0.245621 -0.592257
vn -0.0000 -0.6367 0.7711
vn -0.0000 -0.9719 0.2356
vn 0.6107 -0.1984 0.7666
vn 0.9243 -0.3003 0.2356
vn 0.3743 0.5151 0.7711
vn 0.5713 0.7862 0.2356
vn -0.3743 0.5152 0.7710
vn -0.5712 0.7863 0.2356
vn -0.6056 -0.1968 0.7710
vn -0.9243 -0.3003 0.2356
vn -0.3257 0.4143 0.8499
vn 0.4897 -0.6640 0.5651
vn -0.5142 -0.1427 0.8457
vn 0.7878 0.2448 0.5652
vn -0.0018 -0.5591 0.8291
vn 0.0024 0.8206 0.5715
vn 0.5312 -0.1744 0.8291
vn -0.7797 0.2560 0.5714
vn 0.3300 0.4513 0.8291
vn -0.4845 -0.6624 0.5714
vn 0.3921 0.1572 0.9064
vn 0.4814 0.1804 0.8577
vn -0.8236 0.1266 0.5529
vn -0.8799 0.4650 0.0976
vn -0.2860 0.0381 0.9575
vn -0.3502 -0.3973 0.8483
vn 0.2790 -0.3225 0.9045
vn 0.3223 -0.3981 0.8589
vn -0.2512 0.9429 0.2186
vn 0.9852 0.1410 0.0976
vn -0.0520 0.2841 0.9574
vn -0.4859 0.2106 0.8483
vn -0.2205 -0.3650 0.9045
vn -0.2790 -0.4295 0.8589
vn -0.1399 0.8500 -0.5078
vn 0.6127 -0.6055 -0.5078
vn 0.2541 0.1373 0.9574
vn 0.0501 0.5272 0.8483
vn -0.4153 0.0969 0.9045
vn -0.4947 0.1326 0.8589
vn 0.7407 0.3817 0.5529
vn 0.7575 -0.6152 0.2185
vn 0.2090 -0.1991 0.9574
vn 0.5169 0.1153 0.8483
vn -0.0360 0.4248 0.9046
vn -0.0266 0.5116 0.8588
vn -0.7142 -0.6931 0.0976
vn -0.9744 0.0525 0.2186
vn -0.1002 -0.2439 0.9646
vn 0.2739 -0.4540 0.8478
vn 0.8090 -0.2629 0.5257
vn -0.0000 -0.7073 0.7069
vn -0.0000 -0.8506 0.5258
vn -0.6727 -0.2186 0.7069
vn -0.8090 -0.2629 0.5258
vn -0.4158 0.5722 0.7069
vn -0.5000 0.6881 0.5258
vn 0.4158 0.5723 0.7069
vn 0.4999 0.6882 0.5258
vn 0.6727 -0.2185 0.7069
vn -0.5151 0.5498 0.6576
vn 0.7398 -0.1421 0.6577
vn 0.7677 0.6387 -0.0523
vn 0.6487 0.5882 0.4828
vn -0.1792 -0.8572 0.4828
vn 0.6137 -0.6302 -0.4756
vn 0.3637 0.6598 0.6576
vn 0.0935 -0.7475 0.6576
vn 0.8447 -0.5327 -0.0523
vn -0.9965 -0.0654 -0.0524
vn 0.5919 -0.5865 0.5529
vn -0.3865 -0.7699 -0.5078
vn -0.3511 -0.9105 0.2186
vn 0.4385 -0.8934 0.0976
vn 0.8192 0.5303 0.2186
vn -0.1341 0.8224 0.5529
vn -0.3748 -0.7442 0.5529
vn 0.7652 0.3956 -0.5078
vn -0.8516 0.1296 -0.5078
vn 0.1704 0.9805 0.0976
vn -0.7952 -0.5712 0.2033
vn -0.9183 -0.3958 0.0135
vn -0.7890 0.5797 0.2033
vn -0.6602 0.7509 0.0136
vn 0.3074 0.9296 0.2034
vn 0.5100 0.8601 0.0138
vn 0.9791 -0.0051 0.2035
vn 0.9756 -0.2191 0.0139
vn 0.2978 -0.9327 0.2035
vn 0.0932 -0.9956 0.0139
vn 0.7891 0.3889 -0.4756
vn -0.8669 0.1491 -0.4756
vn -0.3589 0.7988 0.4828
vn -0.3702 0.9275 -0.0524
vn -0.2455 -0.9680 -0.0523
vn -0.6820 -0.3200 0.6576
vn -0.1260 0.8706 -0.4756
vn -0.4097 -0.7784 -0.4756
vn -0.8706 -0.0945 0.4828
vn 0.7599 -0.4352 0.4829
s 0
f 1//1 2//1 4//1
f 3//2 4//2 2//2
f 5//3 6//3 2//3
f 3//4 2//4 6//4
f 7//5 8//5 6//5
f 3//6 6//6 8//6
f 9//7 10//7 8//7
f 3//8 8//8 10//8
f 11//9 4//9 10//9
f 3//10 10//10 4//10
f 12//11 5//11 1//11
f 2//12 1//12 5//12
f 13//13 7//13 5//13
f 6//14 5//14 7//14
f 14//15 9//15 7//15
f 8//16 7//16 9//16
f 15//17 11//17 9//17
f 10//18 9//18 11//18
f 16//19 1//19 11//19
f 4//20 11//20 1//20
f 12//21 17//21 5//21
f 18//22 5//22 17//22
f 12//23 19//23 40//23 38//23
f 34//24 13//24 54//24 55//24
f 12//25 1//25 19//25
f 21//26 19//26 1//26
f 16//27 22//27 1//27
f 21//28 1//28 22//28
f 27//29 28//29 49//29 48//29
f 22//30 16//30 42//30 43//30
f 16//31 11//31 23//31
f 25//32 23//32 11//32
f 15//33 26//33 11//33
f 25//34 11//34 26//34
f 36//35 34//35 55//35 57//35
f 24//36 22//36 43//36 45//36
f 15//37 9//37 27//37
f 29//38 27//38 9//38
f 14//39 30//39 9//39
f 29//40 9//40 30//40
f 15//41 27//41 48//41 46//41
f 35//42 36//42 57//42 56//42
f 14//43 7//43 31//43
f 33//44 31//44 7//44
f 13//45 34//45 7//45
f 33//46 7//46 34//46
f 30//47 14//47 50//47 51//47
f 23//48 24//48 45//48 44//48
f 13//49 5//49 35//49
f 37//50 35//50 5//50
f 17//51 20//51 18//51
f 19//52 21//52 20//52
f 22//53 24//53 21//53
f 23//54 25//54 24//54
f 26//55 28//55 25//55
f 27//56 29//56 28//56
f 30//57 32//57 29//57
f 31//58 33//58 32//58
f 34//59 36//59 33//59
f 35//60 37//60 36//60
f 53//61 51//61 71//61 73//61
f 41//62 39//62 59//62 61//62
f 46//63 48//63 68//63 66//63
f 52//64 53//64 73//64 72//64
f 40//65 41//65 61//65 60//65
f 47//66 46//66 66//66 67//66
f 57//67 55//67 75//67 77//67
f 45//68 43//68 63//68 65//68
f 50//69 52//69 72//69 70//69
f 38//70 40//70 60//70 58//70
f 14//71 31//71 52//71 50//71
f 28//72 26//72 47//72 49//72
f 19//73 20//73 41//73 40//73
f 26//74 15//74 46//74 47//74
f 31//75 32//75 53//75 52//75
f 16//76 23//76 44//76 42//76
f 13//77 35//77 56//77 54//77
f 20//78 17//78 39//78 41//78
f 32//79 30//79 51//79 53//79
f 17//80 12//80 38//80 39//80
f 58//81 60//81 59//81
f 61//82 59//82 60//82
f 62//83 64//83 63//83
f 65//84 63//84 64//84
f 66//85 68//85 67//85
f 69//86 67//86 68//86
f 70//87 72//87 71//87
f 73//88 71//88 72//88
f 74//89 76//89 75//89
f 77//90 75//90 76//90
f 43//91 42//91 62//91 63//91
f 55//92 54//92 74//92 75//92
f 48//93 49//93 69//93 68//93
f 42//94 44//94 64//94 62//94
f 54//95 56//95 76//95 74//95
f 49//96 47//96 67//96 69//96
f 39//97 38//97 58//97 59//97
f 51//98 50//98 70//98 71//98
f 44//99 45//99 65//99 64//99
f 56//100 57//100 77//100 76//100
